<?xml version="1.0" encoding="UTF-8" standalone="no"?>
<svg
   xmlns:dc="http://purl.org/dc/elements/1.1/"
   xmlns:cc="http://creativecommons.org/ns#"
   xmlns:rdf="http://www.w3.org/1999/02/22-rdf-syntax-ns#"
   xmlns:svg="http://www.w3.org/2000/svg"
   xmlns="http://www.w3.org/2000/svg"
   xmlns:xlink="http://www.w3.org/1999/xlink"
   xmlns:sodipodi="http://sodipodi.sourceforge.net/DTD/sodipodi-0.dtd"
   xmlns:inkscape="http://www.inkscape.org/namespaces/inkscape"
   width="1235"
   height="650"
   id="svg3032"
   version="1.1"
   inkscape:version="0.92.1 r15371"
   sodipodi:docname="US28.svg">
  <metadata
     id="metadata3077">
    <rdf:RDF>
      <cc:Work
         rdf:about="">
        <dc:format>image/svg+xml</dc:format>
        <dc:type
           rdf:resource="http://purl.org/dc/dcmitype/StillImage" />
        <dc:title></dc:title>
      </cc:Work>
    </rdf:RDF>
  </metadata>
  <sodipodi:namedview
     pagecolor="#ffffff"
     bordercolor="#666666"
     borderopacity="1"
     objecttolerance="10"
     gridtolerance="10"
     guidetolerance="10"
     inkscape:pageopacity="0"
     inkscape:pageshadow="2"
     inkscape:window-width="1304"
     inkscape:window-height="746"
     id="namedview3075"
     showgrid="false"
     inkscape:zoom="0.30405592"
     inkscape:cx="709.00442"
     inkscape:cy="481.9411"
     inkscape:window-x="54"
     inkscape:window-y="-8"
     inkscape:window-maximized="1"
     inkscape:current-layer="svg3032" />
  <defs
     id="defs3034">
    <path
       id="s"
       transform="scale(0.0308)"
       fill="#fff"
       d="M0,-1 L0.58779,0.80902 L-0.95106,-0.30902 L0.95106,-0.30902 L-0.58779,0.80902z" />
    <g
       id="s17">
      <g
         id="s8">
        <use
           xlink:href="#s"
           x="0.0844"
           y="0.1345"
           id="use3039" />
        <use
           xlink:href="#s"
           x="0.1688"
           y="0.1345"
           id="use3041" />
        <use
           xlink:href="#s"
           x="0.2532"
           y="0.1345"
           id="use3043" />
        <use
           xlink:href="#s"
           x="0.3376"
           y="0.1345"
           id="use3045" />
        <use
           xlink:href="#s"
           x="0.422"
           y="0.1345"
           id="use3047" />
        <use
           xlink:href="#s"
           x="0.5064"
           y="0.1345"
           id="use3049" />
        <use
           xlink:href="#s"
           x="0.5908"
           y="0.1345"
           id="use3051" />
        <use
           xlink:href="#s"
           x="0.6752"
           y="0.1345"
           id="use3053" />
      </g>
      <g
         id="s9">
        <use
           xlink:href="#s8"
           x="0.0422"
           y="-0.0897"
           id="use3056" />
        <use
           xlink:href="#s"
           x="0.0422"
           y="0.0448"
           id="use3058" />
      </g>
    </g>
    <g
       id="u">
      <use
         xlink:href="#s17"
         id="use3061" />
      <use
         xlink:href="#s17"
         y="0.1794"
         id="use3063" />
      <use
         xlink:href="#s17"
         y="0.3588"
         id="use3065" />
    </g>
    <style
       id="style3064"
       type="text/css">
   
    .fil2 {fill:#002868}
    .fil0 {fill:#BF0A30}
    .fil1 {fill:white}
   
  </style>
  </defs>
  <rect
     style="fill:#b22234"
     y="0"
     x="0"
     width="1235"
     height="650"
     id="rect3067" />
  <path
     style="stroke:#ffffff;stroke-width:50"
     inkscape:connector-curvature="0"
     d="M 0,75 H 1235 M 0,175 H 1235 M 0,275 H 1235 M 0,375 H 1235 M 0,475 H 1235 M 0,575 h 1235"
     id="path3069" />
  <rect
     style="fill:#3c3b6e"
     y="0"
     x="0"
     width="494"
     height="350"
     id="rect3071" />
  <g
     id="g8079"
     transform="translate(-1197.4593)">
    <g
       transform="matrix(3.25,0,0,3.25,1197.4593,0)"
       id="g7811">
      <polygon
         id="polygon7797"
         points="137.50342,16.568359 142.00781,16.568359 138.36377,19.21582 139.75537,23.500977 136.11133,20.852539 132.46729,23.500977 133.85889,19.21582 130.21484,16.568359 134.71924,16.568359 136.11133,12.28418 "
         style="fill:#ffffff" />
      <polygon
         id="polygon7799"
         points="117.46631,16.568359 121.9707,16.568359 118.32666,19.21582 119.71826,23.500977 116.07422,20.852539 112.43018,23.500977 113.82178,19.21582 110.17773,16.568359 114.68213,16.568359 116.07422,12.28418 "
         style="fill:#ffffff" />
      <polygon
         id="polygon7801"
         points="97.429199,16.568359 101.93359,16.568359 98.289551,19.21582 99.681152,23.500977 96.037109,20.852539 92.393066,23.500977 93.784668,19.21582 90.140625,16.568359 94.64502,16.568359 96.037109,12.28418 "
         style="fill:#ffffff" />
      <polygon
         id="polygon7803"
         points="77.39209,16.568359 81.896484,16.568359 78.252441,19.21582 79.644043,23.500977 76,20.852539 72.355957,23.500977 73.747559,19.21582 70.103516,16.568359 74.60791,16.568359 76,12.28418 "
         style="fill:#ffffff" />
      <polygon
         id="polygon7805"
         points="57.354981,16.568359 61.859375,16.568359 58.215332,19.21582 59.606934,23.500977 55.962891,20.852539 52.318848,23.500977 53.710449,19.21582 50.066406,16.568359 54.570801,16.568359 55.962891,12.28418 "
         style="fill:#ffffff" />
      <polygon
         id="polygon7807"
         points="37.317871,16.568359 41.822266,16.568359 38.178223,19.21582 39.569824,23.500977 35.925781,20.852539 32.281738,23.500977 33.67334,19.21582 30.029297,16.568359 34.533691,16.568359 35.925781,12.28418 "
         style="fill:#ffffff" />
      <polygon
         id="polygon7809"
         points="17.280762,16.568359 21.785156,16.568359 18.141113,19.21582 19.532715,23.500977 15.888672,20.852539 12.244629,23.500977 13.63623,19.21582 9.9921875,16.568359 14.496582,16.568359 15.888672,12.28418 "
         style="fill:#ffffff" />
    </g>
    <g
       transform="matrix(3.25,0,0,3.25,1197.4593,0)"
       id="g7827">
      <polygon
         id="polygon7813"
         points="137.50342,40.209473 142.00781,40.209473 138.36377,42.856934 139.75537,47.14209 136.11133,44.493652 132.46729,47.14209 133.85889,42.856934 130.21484,40.209473 134.71924,40.209473 136.11133,35.925293 "
         style="fill:#ffffff" />
      <polygon
         id="polygon7815"
         points="117.46631,40.209473 121.9707,40.209473 118.32666,42.856934 119.71826,47.14209 116.07422,44.493652 112.43018,47.14209 113.82178,42.856934 110.17773,40.209473 114.68213,40.209473 116.07422,35.925293 "
         style="fill:#ffffff" />
      <polygon
         id="polygon7817"
         points="97.429199,40.209473 101.93359,40.209473 98.289551,42.856934 99.681152,47.14209 96.037109,44.493652 92.393066,47.14209 93.784668,42.856934 90.140625,40.209473 94.64502,40.209473 96.037109,35.925293 "
         style="fill:#ffffff" />
      <polygon
         id="polygon7819"
         points="77.39209,40.209473 81.896484,40.209473 78.252441,42.856934 79.644043,47.14209 76,44.493652 72.355957,47.14209 73.747559,42.856934 70.103516,40.209473 74.60791,40.209473 76,35.925293 "
         style="fill:#ffffff" />
      <polygon
         id="polygon7821"
         points="57.354981,40.209473 61.859375,40.209473 58.215332,42.856934 59.606934,47.14209 55.962891,44.493652 52.318848,47.14209 53.710449,42.856934 50.066406,40.209473 54.570801,40.209473 55.962891,35.925293 "
         style="fill:#ffffff" />
      <polygon
         id="polygon7823"
         points="37.317871,40.209473 41.822266,40.209473 38.178223,42.856934 39.569824,47.14209 35.925781,44.493652 32.281738,47.14209 33.67334,42.856934 30.029297,40.209473 34.533691,40.209473 35.925781,35.925293 "
         style="fill:#ffffff" />
      <polygon
         id="polygon7825"
         points="17.280762,40.209473 21.785156,40.209473 18.141113,42.856934 19.532715,47.14209 15.888672,44.493652 12.244629,47.14209 13.63623,42.856934 9.9921875,40.209473 14.496582,40.209473 15.888672,35.925293 "
         style="fill:#ffffff" />
    </g>
    <g
       transform="matrix(3.25,0,0,3.25,1197.4593,0)"
       id="g7843">
      <polygon
         id="polygon7829"
         points="137.50342,63.850098 142.00781,63.850098 138.36377,66.497559 139.75537,70.782715 136.11133,68.134277 132.46729,70.782715 133.85889,66.497559 130.21484,63.850098 134.71924,63.850098 136.11133,59.565918 "
         style="fill:#ffffff" />
      <polygon
         id="polygon7831"
         points="117.46631,63.850098 121.9707,63.850098 118.32666,66.497559 119.71826,70.782715 116.07422,68.134277 112.43018,70.782715 113.82178,66.497559 110.17773,63.850098 114.68213,63.850098 116.07422,59.565918 "
         style="fill:#ffffff" />
      <polygon
         id="polygon7833"
         points="97.429199,63.850098 101.93359,63.850098 98.289551,66.497559 99.681152,70.782715 96.037109,68.134277 92.393066,70.782715 93.784668,66.497559 90.140625,63.850098 94.64502,63.850098 96.037109,59.565918 "
         style="fill:#ffffff" />
      <polygon
         id="polygon7835"
         points="77.39209,63.850098 81.896484,63.850098 78.252441,66.497559 79.644043,70.782715 76,68.134277 72.355957,70.782715 73.747559,66.497559 70.103516,63.850098 74.60791,63.850098 76,59.565918 "
         style="fill:#ffffff" />
      <polygon
         id="polygon7837"
         points="57.354981,63.850098 61.859375,63.850098 58.215332,66.497559 59.606934,70.782715 55.962891,68.134277 52.318848,70.782715 53.710449,66.497559 50.066406,63.850098 54.570801,63.850098 55.962891,59.565918 "
         style="fill:#ffffff" />
      <polygon
         id="polygon7839"
         points="37.317871,63.850098 41.822266,63.850098 38.178223,66.497559 39.569824,70.782715 35.925781,68.134277 32.281738,70.782715 33.67334,66.497559 30.029297,63.850098 34.533691,63.850098 35.925781,59.565918 "
         style="fill:#ffffff" />
      <polygon
         id="polygon7841"
         points="17.280762,63.850098 21.785156,63.850098 18.141113,66.497559 19.532715,70.782715 15.888672,68.134277 12.244629,70.782715 13.63623,66.497559 9.9921875,63.850098 14.496582,63.850098 15.888672,59.565918 "
         style="fill:#ffffff" />
    </g>
    <g
       transform="matrix(3.25,0,0,3.25,1197.4593,0)"
       id="g7859">
      <polygon
         id="polygon7845"
         points="137.50342,87.491211 142.00781,87.491211 138.36377,90.138672 139.75537,94.423828 136.11133,91.775391 132.46729,94.423828 133.85889,90.138672 130.21484,87.491211 134.71924,87.491211 136.11133,83.207031 "
         style="fill:#ffffff" />
      <polygon
         id="polygon7847"
         points="117.46631,87.491211 121.9707,87.491211 118.32666,90.138672 119.71826,94.423828 116.07422,91.775391 112.43018,94.423828 113.82178,90.138672 110.17773,87.491211 114.68213,87.491211 116.07422,83.207031 "
         style="fill:#ffffff" />
      <polygon
         id="polygon7849"
         points="97.429199,87.491211 101.93359,87.491211 98.289551,90.138672 99.681152,94.423828 96.037109,91.775391 92.393066,94.423828 93.784668,90.138672 90.140625,87.491211 94.64502,87.491211 96.037109,83.207031 "
         style="fill:#ffffff" />
      <polygon
         id="polygon7851"
         points="77.39209,87.491211 81.896484,87.491211 78.252441,90.138672 79.644043,94.423828 76,91.775391 72.355957,94.423828 73.747559,90.138672 70.103516,87.491211 74.60791,87.491211 76,83.207031 "
         style="fill:#ffffff" />
      <polygon
         id="polygon7853"
         points="57.354981,87.491211 61.859375,87.491211 58.215332,90.138672 59.606934,94.423828 55.962891,91.775391 52.318848,94.423828 53.710449,90.138672 50.066406,87.491211 54.570801,87.491211 55.962891,83.207031 "
         style="fill:#ffffff" />
      <polygon
         id="polygon7855"
         points="37.317871,87.491211 41.822266,87.491211 38.178223,90.138672 39.569824,94.423828 35.925781,91.775391 32.281738,94.423828 33.67334,90.138672 30.029297,87.491211 34.533691,87.491211 35.925781,83.207031 "
         style="fill:#ffffff" />
      <polygon
         id="polygon7857"
         points="17.280762,87.491211 21.785156,87.491211 18.141113,90.138672 19.532715,94.423828 15.888672,91.775391 12.244629,94.423828 13.63623,90.138672 9.9921875,87.491211 14.496582,87.491211 15.888672,83.207031 "
         style="fill:#ffffff" />
    </g>
  </g>
</svg>
